<svg width="400" height="120" viewBox="0 0 400 120" xmlns="http://www.w3.org/2000/svg">
  <!-- 주황색 라인들 (속도감 표현) -->
  <g transform="translate(50, 20)">
    <!-- 가장 왼쪽 라인 (가장 짧음) -->
    <path d="M 0 40 L 40 0 L 50 0 L 10 40 Z" fill="#F97316"/>
    <path d="M 15 55 L 60 0 L 70 0 L 25 55 Z" fill="#F97316"/>
    <path d="M 30 65 L 80 0 L 90 0 L 40 65 Z" fill="#FB923C"/>
    <path d="M 45 72 L 100 0 L 110 0 L 55 72 Z" fill="#FB923C"/>
    <path d="M 60 77 L 120 0 L 130 0 L 70 77 Z" fill="#FDBA74"/>
    <path d="M 75 80 L 140 0 L 150 0 L 85 80 Z" fill="#FDBA74"/>
    <path d="M 90 82 L 160 0 L 170 0 L 100 82 Z" fill="#FED7AA"/>
    <!-- 가장 오른쪽 라인 (가장 길음) -->
  </g>

  <!-- runningcrew 텍스트 -->
  <text x="20" y="105" font-family="system-ui, -apple-system, sans-serif" font-size="28" font-weight="700" fill="#374151">runningcrew</text>
</svg>
